<?xml version="1.0" encoding="UTF-8"?><svg id="Calque_1" xmlns="http://www.w3.org/2000/svg" viewBox="0 0 400 60"><defs><style>.cls-1{fill:#000091;}.cls-2{fill:#e1000f;}</style></defs><path class="cls-1" d="M303.8,13.69c-1.91-.88-3.26-1.89-3.26-3.55s1.06-2.92,3.26-3.15c.22-.02,.43-.05,.67-.05,2.6,0,4.79,1.73,6.52,3.86l5.59-4.93c-2.4-3.26-7.06-5.73-12.18-5.73-.21,0-.4,.02-.6,.02-6.67,.25-11.38,4.61-11.38,10.36,0,7.58,6.64,9.38,11.38,11.25,2.62,1.04,4.67,2.1,4.67,4.19s-1.4,3.59-4.13,3.59c-.18,0-.36-.03-.54-.04-2.93-.2-5.24-1.97-7.18-4.42l-5.59,5.06c3.07,3.65,7.14,5.98,12.78,6.16,.23,0,.44,.03,.67,.03,6.32,0,11.98-3.86,12.12-10.92,0-8.23-8.1-9.61-12.79-11.76Z"/><g><path class="cls-1" d="M67.5,44.23h6.17v1.31h-4.63v3.68h3.97v1.3h-3.97v3.89h4.63v1.31h-6.17v-11.5Z"/><path class="cls-1" d="M76.14,47.45h1.4v.94c.67-.74,1.53-1.26,2.76-1.26,1.86,0,3.24,1.25,3.24,3.6v5.01h-1.4v-4.96c0-1.48-.84-2.33-2.12-2.33-1.2,0-1.95,.69-2.48,1.56v5.73h-1.4v-8.28Z"/><path class="cls-1" d="M86.65,48.71h-1.56v-1.26h1.56v-2.07h1.41v2.07h2.87v1.26h-2.87v4.24c0,1.3,.66,1.66,1.66,1.66,.54,0,.92-.07,1.23-.2v1.25c-.39,.16-.84,.23-1.43,.23-1.84,0-2.87-.92-2.87-2.94v-4.24Z"/><path class="cls-1" d="M92.91,47.45h1.4v1.03c.61-.72,1.36-1.2,2.41-1.2,.26,0,.51,.03,.71,.1v1.36c-.25-.07-.49-.1-.82-.1-1.08,0-1.79,.56-2.3,1.4v5.68h-1.4v-8.28Z"/><path class="cls-1" d="M102.58,56.05c-2.79,0-4.52-2.05-4.52-4.47s1.61-4.47,4.17-4.47c2.25,0,3.71,1.53,3.71,3.6,0,.33-.05,.66-.1,.89h-6.36c.05,1.99,1.31,3.19,3.09,3.19,1.07,0,1.97-.49,2.51-1.23l1.03,.8c-.77,1.03-2,1.69-3.55,1.69Zm-2.99-5.52h4.96c-.05-1.22-.94-2.23-2.32-2.23s-2.35,.8-2.64,2.23Z"/><path class="cls-1" d="M107.41,54.46l4.88-5.75h-4.76v-1.26h6.47v1.26l-4.89,5.75h5.01v1.26h-6.7v-1.26Z"/><path class="cls-1" d="M124.02,47.12c1.23,0,2.2,.48,2.94,1.31v-5.03h1.4v12.32h-1.4v-.99c-.74,.84-1.71,1.31-2.94,1.31-2.59,0-4.25-2.05-4.25-4.47s1.66-4.47,4.25-4.47Zm.16,7.62c1.15,0,2.17-.56,2.78-1.53v-3.25c-.64-.99-1.64-1.53-2.78-1.53-1.76,0-2.94,1.4-2.94,3.15s1.18,3.15,2.94,3.15Z"/><path class="cls-1" d="M130.66,53.64c0-1.25,.95-2.14,2.71-2.43l2.79-.46v-.57c0-1.15-.82-1.81-2-1.81-.95,0-1.72,.44-2.23,1.15l-1.05-.81c.72-.98,1.89-1.59,3.33-1.59,2.1,0,3.35,1.23,3.35,3.05v5.55h-1.4v-1.03c-.62,.8-1.67,1.26-2.78,1.26-1.63,0-2.73-.9-2.73-2.32Zm2.96,1.17c1.1,0,2-.53,2.55-1.41v-1.63l-2.45,.41c-1.13,.2-1.64,.71-1.64,1.41s.57,1.22,1.54,1.22Z"/><path class="cls-1" d="M140.2,47.45h1.4v.94c.67-.74,1.53-1.26,2.76-1.26,1.86,0,3.24,1.25,3.24,3.6v5.01h-1.4v-4.96c0-1.48-.84-2.33-2.12-2.33-1.2,0-1.95,.69-2.48,1.56v5.73h-1.4v-8.28Z"/><path class="cls-1" d="M150.33,53.75c.57,.72,1.26,1.13,2.1,1.13,.92,0,1.45-.56,1.45-1.28,0-1.86-4.14-1.2-4.14-4.12,0-1.3,1.1-2.36,2.69-2.36,1.18,0,2.2,.56,2.78,1.36l-.97,.82c-.44-.62-1.07-1.02-1.79-1.02-.89,0-1.36,.53-1.36,1.17,0,1.86,4.15,1.26,4.15,4.09-.02,1.54-1.25,2.51-2.79,2.51-1.31,0-2.35-.53-3.1-1.46l.99-.84Z"/><path class="cls-1" d="M161.61,43.41h1.4v12.32h-1.4v-12.32Z"/><path class="cls-1" d="M168.1,44.23l-1.4,4.4h-1.59l1.69-4.4h1.3Z"/><path class="cls-1" d="M173.09,56.05c-2.79,0-4.52-2.05-4.52-4.47s1.61-4.47,4.17-4.47c2.25,0,3.71,1.53,3.71,3.6,0,.33-.05,.66-.1,.89h-6.36c.05,1.99,1.31,3.19,3.09,3.19,1.07,0,1.97-.49,2.51-1.23l1.03,.8c-.77,1.03-2,1.69-3.55,1.69Zm-2.99-5.52h4.96c-.05-1.22-.94-2.23-2.32-2.23s-2.35,.8-2.64,2.23Z"/><path class="cls-1" d="M178.65,47.45h1.4v.94c.67-.74,1.53-1.26,2.76-1.26,1.86,0,3.24,1.25,3.24,3.6v5.01h-1.4v-4.96c0-1.48-.84-2.33-2.12-2.33-1.2,0-1.95,.69-2.48,1.56v5.73h-1.4v-8.28Z"/><path class="cls-1" d="M188.79,53.75c.57,.72,1.26,1.13,2.1,1.13,.92,0,1.45-.56,1.45-1.28,0-1.86-4.14-1.2-4.14-4.12,0-1.3,1.1-2.36,2.69-2.36,1.18,0,2.2,.56,2.78,1.36l-.97,.82c-.44-.62-1.07-1.02-1.79-1.02-.89,0-1.36,.53-1.36,1.17,0,1.86,4.15,1.26,4.15,4.09-.02,1.54-1.25,2.51-2.79,2.51-1.31,0-2.35-.53-3.1-1.46l.99-.84Z"/><path class="cls-1" d="M199.51,56.05c-2.79,0-4.52-2.05-4.52-4.47s1.61-4.47,4.17-4.47c2.25,0,3.71,1.53,3.71,3.6,0,.33-.05,.66-.1,.89h-6.36c.05,1.99,1.31,3.19,3.09,3.19,1.07,0,1.97-.49,2.51-1.23l1.03,.8c-.77,1.03-2,1.69-3.55,1.69Zm-2.99-5.52h4.96c-.05-1.22-.94-2.23-2.32-2.23s-2.35,.8-2.64,2.23Z"/><path class="cls-1" d="M204.79,44.31c0-.53,.44-.97,.99-.97s.97,.44,.97,.97-.43,.98-.97,.98-.99-.44-.99-.98Zm.28,3.14h1.4v8.28h-1.4v-8.28Z"/><path class="cls-1" d="M209.54,55.13c-.38-.3-.57-.74-.57-1.18,0-.66,.34-1.2,.99-1.61-.72-.54-1.15-1.38-1.15-2.3,0-1.59,1.25-2.94,3.22-2.94,.61,0,1.15,.13,1.59,.34h3.07v1.22h-1.79c.23,.41,.34,.89,.34,1.38,0,1.58-1.23,2.92-3.22,2.92-.41,0-.8-.07-1.15-.16-.34,.25-.54,.54-.54,.85,0,.35,.18,.59,.69,.59h2.36c2.18,0,3.2,1.07,3.2,2.55,0,1.74-1.74,3.04-4.22,3.04s-4.06-.95-4.06-2.61c0-.84,.41-1.51,1.23-2.09Zm2.81,3.53c1.74,0,2.84-.69,2.84-1.77,0-.79-.44-1.41-1.92-1.41h-2.55c-.71,.43-1.05,.92-1.05,1.58,0,1,1.03,1.61,2.68,1.61Zm1.58-8.62c0-1.02-.69-1.84-1.89-1.84s-1.91,.82-1.91,1.84,.67,1.82,1.91,1.82,1.89-.82,1.89-1.82Z"/><path class="cls-1" d="M218.23,47.45h1.4v.94c.67-.74,1.53-1.26,2.76-1.26,1.86,0,3.24,1.25,3.24,3.6v5.01h-1.4v-4.96c0-1.48-.84-2.33-2.12-2.33-1.2,0-1.95,.69-2.48,1.56v5.73h-1.4v-8.28Z"/><path class="cls-1" d="M232.07,56.05c-2.79,0-4.52-2.05-4.52-4.47s1.61-4.47,4.17-4.47c2.25,0,3.71,1.53,3.71,3.6,0,.33-.05,.66-.1,.89h-6.36c.05,1.99,1.31,3.19,3.09,3.19,1.07,0,1.97-.49,2.51-1.23l1.03,.8c-.77,1.03-2,1.69-3.55,1.69Zm-2.99-5.52h4.96c-.05-1.22-.94-2.23-2.32-2.23s-2.35,.8-2.64,2.23Z"/><path class="cls-1" d="M237.64,47.45h1.4v.9c.62-.72,1.45-1.23,2.59-1.23s2.18,.54,2.69,1.59c.66-.9,1.53-1.59,2.96-1.59,1.77,0,3.07,1.18,3.07,3.43v5.17h-1.4v-5.12c0-1.38-.77-2.17-1.95-2.17-1.05,0-1.79,.59-2.33,1.56,.02,.18,.03,.36,.03,.56v5.17h-1.4v-5.12c0-1.38-.76-2.17-1.95-2.17-1.13,0-1.84,.71-2.32,1.56v5.73h-1.4v-8.28Z"/><path class="cls-1" d="M256.8,56.05c-2.79,0-4.52-2.05-4.52-4.47s1.61-4.47,4.17-4.47c2.25,0,3.71,1.53,3.71,3.6,0,.33-.05,.66-.1,.89h-6.36c.05,1.99,1.31,3.19,3.09,3.19,1.07,0,1.97-.49,2.51-1.23l1.03,.8c-.77,1.03-2,1.69-3.55,1.69Zm-2.99-5.52h4.96c-.05-1.22-.94-2.23-2.32-2.23s-2.35,.8-2.64,2.23Z"/><path class="cls-1" d="M262.36,47.45h1.4v.94c.67-.74,1.53-1.26,2.76-1.26,1.86,0,3.24,1.25,3.24,3.6v5.01h-1.4v-4.96c0-1.48-.84-2.33-2.12-2.33-1.2,0-1.95,.69-2.48,1.56v5.73h-1.4v-8.28Z"/><path class="cls-1" d="M272.87,48.71h-1.56v-1.26h1.56v-2.07h1.41v2.07h2.87v1.26h-2.87v4.24c0,1.3,.66,1.66,1.66,1.66,.54,0,.92-.07,1.23-.2v1.25c-.39,.16-.84,.23-1.43,.23-1.84,0-2.87-.92-2.87-2.94v-4.24Z"/><path class="cls-1" d="M283.5,53.75c.57,.72,1.26,1.13,2.1,1.13,.92,0,1.45-.56,1.45-1.28,0-1.86-4.14-1.2-4.14-4.12,0-1.3,1.1-2.36,2.69-2.36,1.18,0,2.2,.56,2.78,1.36l-.97,.82c-.44-.62-1.07-1.02-1.79-1.02-.89,0-1.36,.53-1.36,1.17,0,1.86,4.15,1.26,4.15,4.09-.02,1.54-1.25,2.51-2.79,2.51-1.31,0-2.35-.53-3.1-1.46l.99-.84Z"/><path class="cls-1" d="M296.27,47.45h1.4v4.68c0,2.48-1.43,3.92-3.68,3.92s-3.66-1.44-3.66-3.92v-4.68h1.4v4.73c0,1.63,.87,2.56,2.28,2.56s2.27-.94,2.27-2.56v-4.73Z"/><path class="cls-1" d="M300.26,47.45h1.4v.99c.74-.84,1.71-1.31,2.94-1.31,2.59,0,4.25,2.05,4.25,4.47s-1.66,4.47-4.25,4.47c-1.23,0-2.2-.48-2.94-1.31v5.03h-1.4v-12.32Zm1.4,2.53v3.22c.64,1,1.64,1.54,2.78,1.54,1.76,0,2.96-1.4,2.96-3.15s-1.2-3.15-2.96-3.15c-1.15,0-2.15,.56-2.78,1.54Z"/><path class="cls-1" d="M314.83,56.05c-2.79,0-4.52-2.05-4.52-4.47s1.61-4.47,4.17-4.47c2.25,0,3.71,1.53,3.71,3.6,0,.33-.05,.66-.1,.89h-6.36c.05,1.99,1.31,3.19,3.09,3.19,1.07,0,1.97-.49,2.51-1.23l1.03,.8c-.77,1.03-2,1.69-3.55,1.69Zm-2.99-5.52h4.96c-.05-1.22-.94-2.23-2.32-2.23s-2.35,.8-2.64,2.23Zm2.02-4.4l1.71-2.73h1.58l-1.92,2.73h-1.36Z"/><path class="cls-1" d="M320.39,47.45h1.4v1.03c.61-.72,1.36-1.2,2.41-1.2,.26,0,.51,.03,.71,.1v1.36c-.25-.07-.49-.1-.82-.1-1.08,0-1.79,.56-2.3,1.4v5.68h-1.4v-8.28Z"/><path class="cls-1" d="M326.47,44.31c0-.53,.44-.97,.99-.97s.97,.44,.97,.97-.43,.98-.97,.98-.99-.44-.99-.98Zm.28,3.14h1.4v8.28h-1.4v-8.28Z"/><path class="cls-1" d="M334.74,56.05c-2.79,0-4.52-2.05-4.52-4.47s1.61-4.47,4.17-4.47c2.25,0,3.71,1.53,3.71,3.6,0,.33-.05,.66-.1,.89h-6.36c.05,1.99,1.31,3.19,3.09,3.19,1.07,0,1.97-.49,2.51-1.23l1.03,.8c-.77,1.03-2,1.69-3.55,1.69Zm-2.99-5.52h4.96c-.05-1.22-.94-2.23-2.32-2.23s-2.35,.8-2.64,2.23Z"/><path class="cls-1" d="M345.94,47.45h1.4v4.68c0,2.48-1.43,3.92-3.68,3.92s-3.66-1.44-3.66-3.92v-4.68h1.4v4.73c0,1.63,.87,2.56,2.28,2.56s2.27-.94,2.27-2.56v-4.73Z"/><path class="cls-1" d="M349.93,47.45h1.4v1.03c.61-.72,1.36-1.2,2.41-1.2,.26,0,.51,.03,.71,.1v1.36c-.25-.07-.49-.1-.82-.1-1.08,0-1.79,.56-2.3,1.4v5.68h-1.4v-8.28Z"/></g><path class="cls-1" d="M48.12,3.38l8.45,.84C59.17,1.63,62.43,.16,67.02,.16c10.65,0,17.04,8.32,17.04,18.11s-6.39,18.11-17.04,18.11c-4.59,0-7.85-1.46-10.45-4.06v19.1h-8.45V3.38Zm8.45,9.63v10.52c2.26,3.2,5.39,4.86,9.25,4.86,5.72,0,9.45-4.26,9.45-10.12s-3.73-10.12-9.45-10.12c-3.93,0-7.12,1.73-9.25,4.86Z"/><path class="cls-1" d="M88.46,25.99c0-5.06,3.93-8.85,11.12-10.05l10.25-1.73v-.87c0-3.53-2.66-5.79-6.52-5.79-3.26,0-5.79,1.53-7.59,3.99l-6.19-4.73c3-4.13,7.92-6.66,14.05-6.66,9.72,0,14.71,5.79,14.71,13.18v21.7h-8.45v-3.26c-2.13,2.6-6.12,4.26-10.05,4.26-6.72,0-11.32-3.86-11.32-10.05Zm13.05,3.33c3.86,0,6.66-1.8,8.32-4.46v-4.73l-7.99,1.33c-3.53,.6-4.99,2.06-4.99,4.13,0,2.26,1.8,3.73,4.66,3.73Z"/><path class="cls-1" d="M127.27,1.49h8.45v3.33c2.2-2.26,5.06-3.99,8.85-3.99,1.13,0,2.13,.2,2.93,.47V9.61c-1.07-.27-2.2-.47-3.73-.47-4.13,0-6.79,2.26-8.05,4.39v21.5h-8.45V1.49Z"/><path class="cls-1" d="M175.93,24.52l6.59,5.06c-3.13,4.13-8.05,6.79-14.18,6.79-11.58,0-18.51-8.32-18.51-18.11S156.76,.16,168.34,.16c6.12,0,11.05,2.66,14.18,6.79l-6.59,5.06c-1.6-2.33-4.26-3.86-7.72-3.86-5.52,0-9.59,4.26-9.59,10.12s4.06,10.12,9.72,10.12c3.33,0,5.99-1.53,7.59-3.86Z"/><path class="cls-1" d="M221.2,18.27c0,10.05-7.46,18.11-18.37,18.11s-18.37-8.05-18.37-18.11S191.91,.16,202.82,.16s18.37,8.05,18.37,18.11Zm-8.79,0c0-5.86-4.06-10.12-9.45-10.12s-9.72,4.26-9.72,10.12,4.13,10.12,9.72,10.12,9.45-4.33,9.45-10.12Z"/><path class="cls-1" d="M250.35,1.49h8.52V20.13c0,10.05-5.86,16.24-15.71,16.24s-15.64-6.19-15.64-16.24V1.49h8.52V20.53c0,4.86,2.53,7.85,7.19,7.85s7.12-3,7.12-7.85V1.49Z"/><path class="cls-1" d="M267.59,1.49h8.45v3.33c2.2-2.26,5.06-3.99,8.85-3.99,1.13,0,2.13,.2,2.93,.47V9.61c-1.07-.27-2.2-.47-3.73-.47-4.13,0-6.79,2.26-8.05,4.39v21.5h-8.45V1.49Z"/><path class="cls-1" d="M345.81,1.49h8.52V20.13c0,10.05-5.86,16.24-15.71,16.24s-15.64-6.19-15.64-16.24V1.49h8.52V20.53c0,4.86,2.53,7.85,7.19,7.85s7.12-3,7.12-7.85V1.49Z"/><path class="cls-1" d="M363.05,1.49h8.45v2.73c2.6-2.6,5.86-4.06,10.45-4.06,10.65,0,17.04,8.32,17.04,18.11s-6.39,18.11-17.04,18.11c-4.59,0-7.85-1.46-10.45-4.06v19.1h-8.45V1.49Zm8.45,11.52v10.52c2.26,3.2,5.39,4.86,9.25,4.86,5.72,0,9.45-4.26,9.45-10.12s-3.73-10.12-9.45-10.12c-3.93,0-7.12,1.73-9.25,4.86Z"/><path class="cls-2" d="M18.56,28.62H4.24c-2.34,0-4.24,1.9-4.24,4.24s1.9,4.24,4.24,4.24H14.33v10.09c0,2.34,1.9,4.23,4.24,4.24,1.17,0,2.23-.47,2.99-1.24,.77-.77,1.24-1.83,1.24-3v-14.33c0-1.17-.47-2.23-1.24-3-.77-.77-1.82-1.24-3-1.24"/><path class="cls-1" d="M35.45,14.33h-14.3c-2.34,0-4.23,1.89-4.23,4.23s1.89,4.23,4.23,4.23h10.07s0,10.07,0,10.07c0,2.34,1.89,4.23,4.23,4.23,1.17,0,2.22-.47,2.99-1.24,.77-.77,1.24-1.82,1.24-2.99v-14.3c0-1.17-.47-2.23-1.24-2.99-.77-.77-1.82-1.24-2.99-1.24"/><path class="cls-2" d="M52.36,0h-14.33c-2.34,0-4.24,1.9-4.24,4.24s1.9,4.24,4.24,4.24h10.09s0,10.09,0,10.09c0,2.34,1.9,4.24,4.24,4.24,1.17,0,2.23-.48,2.99-1.24,.77-.77,1.24-1.83,1.24-3V4.24c0-1.17-.48-2.23-1.24-3-.77-.77-1.82-1.24-2.99-1.24"/></svg>