<svg width="68" height="69" viewBox="0 0 68 69" fill="none" xmlns="http://www.w3.org/2000/svg">
<path fill-rule="evenodd" clip-rule="evenodd" d="M6.8002 14.95C6.33151 14.95 5.9502 14.5687 5.9502 14.1C5.9502 13.6313 6.33151 13.25 6.8002 13.25C7.26889 13.25 7.6502 13.6313 7.6502 14.1C7.6502 14.5687 7.26889 14.95 6.8002 14.95Z" fill="#00A95F"/>
<path fill-rule="evenodd" clip-rule="evenodd" d="M55.2504 61.7C54.7817 61.7 54.4004 61.3187 54.4004 60.85C54.4004 60.3813 54.7817 60 55.2504 60C55.7191 60 56.1004 60.3813 56.1004 60.85C56.1004 61.3187 55.7191 61.7 55.2504 61.7Z" fill="#00A95F"/>
<path fill-rule="evenodd" clip-rule="evenodd" d="M56.1 9.8499C55.6313 9.8499 55.25 9.46859 55.25 8.9999C55.25 8.53117 55.6313 8.1499 56.1 8.1499C56.5687 8.1499 56.95 8.53117 56.95 8.9999C56.95 9.46859 56.5687 9.8499 56.1 9.8499Z" fill="#00A95F"/>
<path fill-rule="evenodd" clip-rule="evenodd" d="M17.85 65.95C17.3813 65.95 17 65.5687 17 65.1C17 64.6313 17.3813 64.25 17.85 64.25C18.3187 64.25 18.7 64.6313 18.7 65.1C18.7 65.5687 18.3187 65.95 17.85 65.95Z" fill="#00A95F"/>
<path d="M35.6998 22.5999C35.6998 21.661 34.9387 20.8999 33.9998 20.8999C33.0609 20.8999 32.2998 21.661 32.2998 22.5999C32.2998 23.5388 33.0609 24.2999 33.9998 24.2999C34.9387 24.2999 35.6998 23.5388 35.6998 22.5999Z" fill="white"/>
<path d="M35.6998 29.3999C35.6998 28.461 34.9387 27.6999 33.9998 27.6999C33.0609 27.6999 32.2998 28.461 32.2998 29.3999V42.9999C32.2998 43.9388 33.0609 44.6999 33.9998 44.6999C34.9387 44.6999 35.6998 43.9388 35.6998 42.9999V29.3999Z" fill="white"/>
<path fill-rule="evenodd" clip-rule="evenodd" d="M50.1502 10.7002C54.4473 10.7002 57.6906 14.8039 57.7975 19.7956L57.8002 20.0502V42.1502C57.8002 47.1711 54.6285 51.3585 50.3678 51.4967L50.1502 51.5002H40.1431L40.0776 51.5607C40.0248 51.6105 39.9662 51.6696 39.9018 51.7379L39.6917 51.97L39.3775 52.3416L38.9334 52.8956L38.2346 53.8074L36.8828 55.599L36.3732 56.2653L35.9425 56.8141L35.6643 57.1553L35.4975 57.3518L35.3439 57.5252L35.202 57.6768L35.0704 57.8079L34.9476 57.92L34.8322 58.0145C34.8135 58.0289 34.7951 58.0425 34.7769 58.0556L34.6698 58.1261C34.6348 58.1472 34.6005 58.1659 34.5665 58.1825L34.4655 58.2261C34.4321 58.2386 34.3987 58.2492 34.3653 58.2582L34.2645 58.2802L34.1616 58.2935L34.0552 58.2995L33.9452 58.2995L33.8388 58.2936L33.7361 58.2806C33.7022 58.2748 33.6688 58.2677 33.6355 58.2588L33.5356 58.2271L33.4349 58.184C33.3841 58.1593 33.3325 58.1298 33.2792 58.0948L33.1701 58.017L33.0551 57.9229C33.0354 57.9058 33.0153 57.8879 32.9949 57.8693L32.8683 57.7481L32.732 57.6071L32.5846 57.4449L32.4247 57.2601L32.0613 56.8171L31.7448 56.4151L30.9774 55.4113L29.4774 53.4238L29.0481 52.8676L28.8324 52.5954L28.5552 52.2562L28.4294 52.1066L28.2024 51.8476C28.1324 51.7703 28.0679 51.702 28.0092 51.643L27.8581 51.5002H17.8502C13.5531 51.5002 10.3098 47.3965 10.2029 42.4048L10.2002 42.1502V26.8502C10.2002 26.3808 10.5808 26.0002 11.0502 26.0002C11.4861 26.0002 11.8454 26.3283 11.8945 26.7511L11.9002 26.8502V42.1502C11.9002 46.3205 14.4323 49.6739 17.6664 49.7967L17.8502 49.8002L28.1022 49.8007L28.2023 49.805L28.2983 49.815L28.3917 49.8321L28.4838 49.8576L28.5761 49.8928L28.6699 49.9392L28.7667 49.9982L28.8678 50.071L28.9748 50.1592L29.0889 50.264L29.2116 50.3868L29.3444 50.529L29.4885 50.692L29.7292 50.9785L30.1031 51.446L30.9349 52.5302L32.5208 54.6308L33.094 55.3687L33.4093 55.7574L33.4855 55.8488C33.6581 56.0551 33.8096 56.2266 33.9386 56.3618L34.0002 56.4242L34.0618 56.3623C34.1262 56.2948 34.1963 56.2183 34.2719 56.1329L34.5147 55.8503L34.7457 55.5703L35.0808 55.1496L35.719 54.319L37.4603 52.0151L38.006 51.3119L38.3639 50.8696L38.594 50.6007L38.7318 50.4487L38.8588 50.3169C38.8792 50.2966 38.8991 50.277 38.9187 50.2582L39.0322 50.1541L39.1384 50.0666C39.1555 50.0534 39.1725 50.0408 39.1892 50.0288L39.2872 49.9638C39.3032 49.9541 39.319 49.9449 39.3348 49.9363L39.4278 49.8906L39.5193 49.856C39.5345 49.8511 39.5497 49.8466 39.5649 49.8424L39.6568 49.8218C39.6722 49.8191 39.6877 49.8167 39.7034 49.8145L39.7988 49.8048L39.8984 49.8007L50.1502 49.8002C53.4101 49.8002 56.0026 46.5239 56.0975 42.3854L56.1002 42.1502V20.0502C56.1002 15.8799 53.568 12.5265 50.334 12.4037L50.1502 12.4002H17.8502C14.5288 12.4002 11.9002 15.8012 11.9002 20.0502C11.9002 20.5196 11.5196 20.9002 11.0502 20.9002C10.5808 20.9002 10.2002 20.5196 10.2002 20.0502C10.2002 15.0292 13.3718 10.8419 17.6326 10.7037L17.8502 10.7002H50.1502ZM52.7002 54.0502C52.7002 53.5808 53.0808 53.2002 53.5502 53.2002C54.0196 53.2002 54.4002 53.5808 54.4002 54.0502C54.4002 54.5196 54.0196 54.9002 53.5502 54.9002C53.0808 54.9002 52.7002 54.5196 52.7002 54.0502ZM51.0002 54.0502C51.0002 53.5808 50.6196 53.2002 50.1502 53.2002H41.6502L41.5511 53.2059C41.1283 53.255 40.8002 53.6143 40.8002 54.0502C40.8002 54.5196 41.1808 54.9002 41.6502 54.9002H50.1502L50.2493 54.8945C50.6721 54.8454 51.0002 54.4861 51.0002 54.0502Z" fill="white"/>
</svg>
